<?xml version="1.0" encoding="UTF-8" standalone="no"?>
<!-- Created with Inkscape (http://www.inkscape.org/) -->

<svg
   xmlns:dc="http://purl.org/dc/elements/1.1/"
   xmlns:cc="http://creativecommons.org/ns#"
   xmlns:rdf="http://www.w3.org/1999/02/22-rdf-syntax-ns#"
   xmlns:svg="http://www.w3.org/2000/svg"
   xmlns="http://www.w3.org/2000/svg"
   xmlns:sodipodi="http://sodipodi.sourceforge.net/DTD/sodipodi-0.dtd"
   xmlns:inkscape="http://www.inkscape.org/namespaces/inkscape"
   width="30px"
   height="30px"
   viewBox="0 0 210 297"
   version="1.1"
   id="svg8"
   inkscape:version="0.92.4 (5da689c313, 2019-01-14)"
   sodipodi:docname="github_icon2.svg">
  <defs
     id="defs2" />
  <sodipodi:namedview
     id="base"
     pagecolor="#ffffff"
     bordercolor="#666666"
     borderopacity="1.0"
     inkscape:pageopacity="0.0"
     inkscape:pageshadow="2"
     inkscape:zoom="0.49497475"
     inkscape:cx="400"
     inkscape:cy="634.05796"
     inkscape:document-units="mm"
     inkscape:current-layer="layer1"
     showgrid="false"
     inkscape:window-width="1366"
     inkscape:window-height="705"
     inkscape:window-x="-8"
     inkscape:window-y="-8"
     inkscape:window-maximized="1" />
  <metadata
     id="metadata5">
    <rdf:RDF>
      <cc:Work
         rdf:about="">
        <dc:format>image/svg+xml</dc:format>
        <dc:type
           rdf:resource="http://purl.org/dc/dcmitype/StillImage" />
        <dc:title></dc:title>
      </cc:Work>
    </rdf:RDF>
  </metadata>
  <g
     inkscape:label="Layer 1"
     inkscape:groupmode="layer"
     id="layer1">
    <path
       id="path19"
       style="clip-rule:evenodd;fill:#010101;fill-rule:evenodd;stroke-width:3.55752468"
       d="m 149.03796,110.06774 c 0.18831,0 -2.07677,4.93024 -2.14042,4.93024 -4.94774,9.07582 -14.48413,14.71663 -30.57209,16.28223 2.29638,1.76152 5.05267,5.09977 5.43503,8.95932 2.88774,1.88409 8.69459,2.51249 13.20727,1.06884 6.3261,-2.01893 8.74751,-14.6657 18.21727,-12.86239 2.04892,0.37507 1.64072,1.7479 -0.12466,2.91989 -2.88755,1.8841 -5.60339,4.2495 -7.69827,9.27355 -1.61023,3.85832 -4.99313,10.75263 -15.69454,10.75263 -4.24581,0 -7.22147,-0.51182 -7.22147,-0.51182 0,0 -0.0849,9.85 -0.0849,13.68051 0,4.41851 5.9017,5.66318 5.9017,7.78711 0,0.83731 -1.95316,0.91603 -3.52281,0.91603 -3.1017,0 -9.55452,-2.61599 -9.55452,-7.20671 0,-3.64727 -0.0822,-15.9065 -0.0822,-18.05628 0,-4.68885 -2.48814,-6.17515 -2.48814,-6.17515 0,0 -0.30927,25.03192 0.59518,28.3936 1.05933,3.9457 2.97184,3.3854 2.97184,5.14755 0,2.61872 -7.76864,0.64882 -10.34396,-5.10822 -1.99057,-4.46838 -1.12087,-29.03534 -1.12087,-29.03534 l -2.12265,-0.0272 c 0,0 -0.11671,11.24268 -0.0716,16.3829 0.0822,5.3239 0.43419,12.05418 -2.698652,15.22856 -2.056874,2.09002 -8.715918,5.7492 -8.715918,2.39863 0,-1.94728 3.649246,-3.54183 3.649246,-8.80408 v -24.2222 c -2.915933,0 -2.475939,7.96405 -2.475939,7.96405 l -0.21749,14.79911 c 0,0 0.645574,5.38886 -5.771897,7.64353 -2.263754,0.8079 -7.105403,1.02281 -7.333396,-0.3018 -0.236056,-1.34232 5.831653,-3.34831 5.887697,-7.51679 0.07427,-2.54572 -0.116702,-4.03507 -0.116702,-15.10242 0,-11.06579 1.470445,-15.15626 6.596582,-18.4167 -15.817156,-1.63813 -25.610286,-5.59413 -30.378704,-16.18063 -0.372651,0.0272 -1.948394,-4.94503 -1.740717,-4.94503 -1.071537,-3.99694 -1.648416,-8.72515 -1.76114,-14.323117 0.06366,-15.185167 7.220885,-20.555775 8.599878,-23.077034 -2.034328,-11.495344 0.34321,-16.725292 1.446045,-18.52165 4.077144,-1.467071 14.17903,3.768488 19.701874,7.45575 8.996533,-2.656853 28.021323,-2.398631 35.154603,0.68151 13.16149,-9.518448 20.12659,-8.061156 20.12659,-8.061156 0,0 4.50173,8.147992 1.18691,20.072453 4.32994,5.576205 7.55792,9.522261 7.55792,19.978588 -0.004,5.893916 -0.69093,11.167146 -2.23776,15.769516 z m -43.70931,106.15899 c 58.13376,0 105.26401,-48.44767 105.26401,-108.20731 0,-59.763698 -47.13025,-108.20809486 -105.26401,-108.20809486 -58.133497,0 -105.26379521,48.44439686 -105.26379521,108.20809486 0,59.75964 47.13029821,108.20731 105.26379521,108.20731 z"
       inkscape:connector-curvature="0" />
  </g>
</svg>
