<?xml version="1.0" encoding="UTF-8" standalone="no"?>
<!-- Created with Inkscape (http://www.inkscape.org/) -->

<svg
   xmlns:dc="http://purl.org/dc/elements/1.1/"
   xmlns:cc="http://creativecommons.org/ns#"
   xmlns:rdf="http://www.w3.org/1999/02/22-rdf-syntax-ns#"
   xmlns:svg="http://www.w3.org/2000/svg"
   xmlns="http://www.w3.org/2000/svg"
   xmlns:sodipodi="http://sodipodi.sourceforge.net/DTD/sodipodi-0.dtd"
   xmlns:inkscape="http://www.inkscape.org/namespaces/inkscape"
   width="30px"
   height="30px"
   viewBox="0 0 210 297"
   version="1.1"
   id="svg8"
   inkscape:version="0.92.4 (5da689c313, 2019-01-14)"
   sodipodi:docname="linkedin_icon.svg">
  <defs
     id="defs2" />
  <sodipodi:namedview
     id="base"
     pagecolor="#ffffff"
     bordercolor="#666666"
     borderopacity="1.0"
     inkscape:pageopacity="0.0"
     inkscape:pageshadow="2"
     inkscape:zoom="0.35"
     inkscape:cx="400"
     inkscape:cy="560"
     inkscape:document-units="mm"
     inkscape:current-layer="layer1"
     showgrid="false"
     inkscape:window-width="1366"
     inkscape:window-height="705"
     inkscape:window-x="-8"
     inkscape:window-y="-8"
     inkscape:window-maximized="1" />
  <metadata
     id="metadata5">
    <rdf:RDF>
      <cc:Work
         rdf:about="">
        <dc:format>image/svg+xml</dc:format>
        <dc:type
           rdf:resource="http://purl.org/dc/dcmitype/StillImage" />
        <dc:title></dc:title>
      </cc:Work>
    </rdf:RDF>
  </metadata>
  <g
     inkscape:label="Layer 1"
     inkscape:groupmode="layer"
     id="layer1">
    <g
       id="g296"
       transform="matrix(0.41119675,0,0,0.41414969,-0.45357,-0.76964476)">
      <g
         id="g3021" />
      <g
         id="Layer_1_1_" />
      <g
         transform="translate(-819.672,-61.929991)"
         id="Layer_1_1_-7" />
      <g
         id="g2995">
        <rect
           y="-512"
           x="-512"
           width="512"
           transform="scale(-1)"
           style="fill:#017bbe;fill-opacity:1;stroke:none"
           ry="70"
           rx="70"
           id="rect2989"
           height="512" />
        <g
           transform="matrix(1.2026312,0,0,1.2026312,-54.384104,-52.796039)"
           id="g2987">
          <rect
             y="203.761"
             x="112.57325"
             width="63.599083"
             style="fill:#ffffff"
             id="rect3163"
             height="196.94901" />
          <path
             style="fill:#ffffff"
             id="path3165"
             d="m 144.78291,175.39295 c 17.44046,0 31.58994,-14.01309 31.58994,-31.28355 0,-17.29015 -14.14948,-31.28535 -31.58994,-31.28535 -17.45188,0 -31.59076,13.9952 -31.59076,31.28535 0,17.27046 14.13888,31.28355 31.59076,31.28355 z"
             inkscape:connector-curvature="0" />
          <path
             style="fill:#ffffff"
             id="path3167"
             d="m 403.51679,291.89301 c -0.375,-10.338 1.962,-44.49 -22.773,-68.916 -12.969,-12.813 -19.519,-18.845 -51.092,-18.845 -25.367,0 -49.136,16.414 -58.562,29.468 v -28.851 h -64.78 v 195.017 h 64.78 c 0,0 0,-89.672 0,-111.17 0,-16.012 8.315,-33 30.943,-33 22.654,0 36.773,18.246 36.773,39.182 v 104.988 h 64.796 v -107.873 z"
             inkscape:connector-curvature="0" />
        </g>
      </g>
    </g>
  </g>
</svg>
